# xmcd
#
# Track frame offsets:
# 150
# 6920
# 20977
# 38845
# 53130
# 81530
# 93147
# 109875
# 124742
# 145555
# 158972
# 184202
# 198415
# 211010
# 227410
# 264617
#
# Disc length: 3745 seconds
#
#
# Revision: 0
# Processed by: cddbd v1.5PL3 Copyright (c) Steve Scherf et al.
# Submitted via: FreeRIP 2.35 
#
DISCID=d80e9f10
DTITLE=Buzz and The Blues Band - Live At The Bridge
DYEAR=1999
DGENRE=Blues
TTITLE0=motherless child
TTITLE1=here come the man
TTITLE2=head games
TTITLE3=i paid my dues
TTITLE4=true believer
TTITLE5=burning all your bridges
TTITLE6=blues takes her away
TTITLE7=i'll make it back someday
TTITLE8=people fall in love
TTITLE9=watch out mama
TTITLE10=no control
TTITLE11=sacha
TTITLE12=where's your money coming from
TTITLE13=hey babe!
TTITLE14=i bought a ticket
TTITLE15=buzzin' around
EXTD=
EXTT0=
EXTT1=
EXTT2=
EXTT3=
EXTT4=
EXTT5=
EXTT6=
EXTT7=
EXTT8=
EXTT9=
EXTT10=
EXTT11=
EXTT12=
EXTT13=
EXTT14=
EXTT15=
PLAYORDER=
